<svg width="130" height="23" viewBox="0 0 130 23" fill="none" xmlns="http://www.w3.org/2000/svg">
<path d="M12.5098 18H10.625V5.32422H3.61328V18H1.73828V3.78125H12.5098V18ZM15.166 12.6191C15.166 11.584 15.3678 10.653 15.7715 9.82617C16.1816 8.99935 16.748 8.36133 17.4707 7.91211C18.1999 7.46289 19.0299 7.23828 19.9609 7.23828C21.3997 7.23828 22.5618 7.73633 23.4473 8.73242C24.3392 9.72852 24.7852 11.0534 24.7852 12.707V12.834C24.7852 13.8626 24.5866 14.7871 24.1895 15.6074C23.7988 16.4212 23.2357 17.056 22.5 17.5117C21.7708 17.9674 20.931 18.1953 19.9805 18.1953C18.5482 18.1953 17.3861 17.6973 16.4941 16.7012C15.6087 15.7051 15.166 14.3867 15.166 12.7461V12.6191ZM16.9824 12.834C16.9824 14.0059 17.2526 14.9466 17.793 15.6562C18.3398 16.3659 19.069 16.7207 19.9805 16.7207C20.8984 16.7207 21.6276 16.3626 22.168 15.6465C22.7083 14.9238 22.9785 13.9147 22.9785 12.6191C22.9785 11.4603 22.7018 10.5228 22.1484 9.80664C21.6016 9.08398 20.8724 8.72266 19.9609 8.72266C19.069 8.72266 18.3496 9.07747 17.8027 9.78711C17.2559 10.4967 16.9824 11.5124 16.9824 12.834ZM26.2598 16.5254L26.8848 15.7539C27.5879 14.8424 27.9883 13.4753 28.0859 11.6523L28.252 7.43359H35.0586V16.5254H36.416V21.1055H34.6094V18H27.2363V21.1055H25.4297L25.4395 16.5254H26.2598ZM28.3984 16.5254H33.252V9.10352H30L29.8926 11.623C29.7819 13.7259 29.2839 15.36 28.3984 16.5254ZM47.3438 12.834C47.3438 14.4421 46.9759 15.7376 46.2402 16.7207C45.5046 17.7038 44.5085 18.1953 43.252 18.1953C41.9694 18.1953 40.9603 17.7884 40.2246 16.9746V22.0625H38.418V7.43359H40.0684L40.1562 8.60547C40.8919 7.69401 41.9141 7.23828 43.2227 7.23828C44.4922 7.23828 45.4948 7.7168 46.2305 8.67383C46.9727 9.63086 47.3438 10.9622 47.3438 12.668V12.834ZM45.5371 12.6289C45.5371 11.4375 45.2832 10.4967 44.7754 9.80664C44.2676 9.11654 43.571 8.77148 42.6855 8.77148C41.5918 8.77148 40.7715 9.25651 40.2246 10.2266V15.2754C40.765 16.2389 41.5918 16.7207 42.7051 16.7207C43.571 16.7207 44.2578 16.3789 44.7656 15.6953C45.2799 15.0052 45.5371 13.9831 45.5371 12.6289ZM49.1699 12.6191C49.1699 11.584 49.3717 10.653 49.7754 9.82617C50.1855 8.99935 50.752 8.36133 51.4746 7.91211C52.2038 7.46289 53.0339 7.23828 53.9648 7.23828C55.4036 7.23828 56.5658 7.73633 57.4512 8.73242C58.3431 9.72852 58.7891 11.0534 58.7891 12.707V12.834C58.7891 13.8626 58.5905 14.7871 58.1934 15.6074C57.8027 16.4212 57.2396 17.056 56.5039 17.5117C55.7747 17.9674 54.9349 18.1953 53.9844 18.1953C52.5521 18.1953 51.39 17.6973 50.498 16.7012C49.6126 15.7051 49.1699 14.3867 49.1699 12.7461V12.6191ZM50.9863 12.834C50.9863 14.0059 51.2565 14.9466 51.7969 15.6562C52.3438 16.3659 53.0729 16.7207 53.9844 16.7207C54.9023 16.7207 55.6315 16.3626 56.1719 15.6465C56.7122 14.9238 56.9824 13.9147 56.9824 12.6191C56.9824 11.4603 56.7057 10.5228 56.1523 9.80664C55.6055 9.08398 54.8763 8.72266 53.9648 8.72266C53.0729 8.72266 52.3535 9.07747 51.8066 9.78711C51.2598 10.4967 50.9863 11.5124 50.9863 12.834ZM65.6934 8.03906C67.0215 8.03906 68.0827 8.48503 68.877 9.37695C69.6777 10.2624 70.0781 11.431 70.0781 12.8828V13.0488C70.0781 14.0449 69.8861 14.9368 69.502 15.7246C69.1178 16.5059 68.5645 17.1146 67.8418 17.5508C67.1257 17.9805 66.2988 18.1953 65.3613 18.1953C63.9421 18.1953 62.7995 17.7233 61.9336 16.7793C61.0677 15.8288 60.6348 14.556 60.6348 12.9609V12.082C60.6348 9.86198 61.0449 8.09766 61.8652 6.78906C62.6921 5.48047 63.9095 4.68294 65.5176 4.39648C66.429 4.23372 67.0443 4.03516 67.3633 3.80078C67.6823 3.56641 67.8418 3.24414 67.8418 2.83398H69.3262C69.3262 3.64779 69.1406 4.28255 68.7695 4.73828C68.4049 5.19401 67.819 5.51628 67.0117 5.70508L65.6641 6.00781C64.5898 6.26172 63.7826 6.69141 63.2422 7.29688C62.7083 7.89583 62.36 8.69661 62.1973 9.69922C63.1543 8.59245 64.3197 8.03906 65.6934 8.03906ZM65.3418 9.52344C64.4564 9.52344 63.7533 9.82292 63.2324 10.4219C62.7116 11.0143 62.4512 11.8379 62.4512 12.8926V13.0488C62.4512 14.1816 62.7116 15.0801 63.2324 15.7441C63.7598 16.4017 64.4694 16.7305 65.3613 16.7305C66.2598 16.7305 66.9694 16.3984 67.4902 15.7344C68.0111 15.0703 68.2715 14.1003 68.2715 12.8242C68.2715 11.8281 68.0078 11.0306 67.4805 10.4316C66.9596 9.82617 66.2467 9.52344 65.3418 9.52344ZM80.5664 18H78.7598V13.4883H73.9062V18H72.0898V7.43359H73.9062V12.0137H78.7598V7.43359H80.5664V18ZM87.8613 18.1953C86.429 18.1953 85.2637 17.7266 84.3652 16.7891C83.4668 15.8451 83.0176 14.5853 83.0176 13.0098V12.6777C83.0176 11.6296 83.2161 10.6953 83.6133 9.875C84.0169 9.04818 84.5768 8.40365 85.293 7.94141C86.0156 7.47266 86.7969 7.23828 87.6367 7.23828C89.0104 7.23828 90.0781 7.69076 90.8398 8.5957C91.6016 9.50065 91.9824 10.7962 91.9824 12.4824V13.2344H84.8242C84.8503 14.276 85.153 15.1191 85.7324 15.7637C86.3184 16.4017 87.0605 16.7207 87.959 16.7207C88.597 16.7207 89.1374 16.5905 89.5801 16.3301C90.0228 16.0697 90.4102 15.7246 90.7422 15.2949L91.8457 16.1543C90.9603 17.515 89.6322 18.1953 87.8613 18.1953ZM87.6367 8.72266C86.9076 8.72266 86.2956 8.98958 85.8008 9.52344C85.306 10.0508 85 10.793 84.8828 11.75H90.1758V11.6133C90.1237 10.6953 89.8763 9.98568 89.4336 9.48438C88.9909 8.97656 88.3919 8.72266 87.6367 8.72266ZM98.4668 18.1953C97.0345 18.1953 95.8691 17.7266 94.9707 16.7891C94.0723 15.8451 93.623 14.5853 93.623 13.0098V12.6777C93.623 11.6296 93.8216 10.6953 94.2188 9.875C94.6224 9.04818 95.1823 8.40365 95.8984 7.94141C96.6211 7.47266 97.4023 7.23828 98.2422 7.23828C99.6159 7.23828 100.684 7.69076 101.445 8.5957C102.207 9.50065 102.588 10.7962 102.588 12.4824V13.2344H95.4297C95.4557 14.276 95.7585 15.1191 96.3379 15.7637C96.9238 16.4017 97.666 16.7207 98.5645 16.7207C99.2025 16.7207 99.7428 16.5905 100.186 16.3301C100.628 16.0697 101.016 15.7246 101.348 15.2949L102.451 16.1543C101.566 17.515 100.238 18.1953 98.4668 18.1953ZM98.2422 8.72266C97.513 8.72266 96.901 8.98958 96.4062 9.52344C95.9115 10.0508 95.6055 10.793 95.4883 11.75H100.781V11.6133C100.729 10.6953 100.482 9.98568 100.039 9.48438C99.5964 8.97656 98.9974 8.72266 98.2422 8.72266Z" fill="#7875FE"/>
<path d="M129.707 12.2071C130.098 11.8166 130.098 11.1834 129.707 10.7929L123.343 4.42893C122.953 4.03841 122.319 4.03841 121.929 4.42893C121.538 4.81946 121.538 5.45262 121.929 5.84315L127.586 11.5L121.929 17.1569C121.538 17.5474 121.538 18.1805 121.929 18.5711C122.319 18.9616 122.953 18.9616 123.343 18.5711L129.707 12.2071ZM109 12.5H129V10.5H109V12.5Z" fill="#7875FE"/>
</svg>
