<svg width="137" height="31" viewBox="0 0 137 31" fill="none" xmlns="http://www.w3.org/2000/svg">
<rect width="137" height="31" fill="#DAD9FB"/>
<path d="M16.5098 22H14.625V9.32422H7.61328V22H5.73828V7.78125H16.5098V22ZM19.166 16.6191C19.166 15.584 19.3678 14.653 19.7715 13.8262C20.1816 12.9993 20.748 12.3613 21.4707 11.9121C22.1999 11.4629 23.0299 11.2383 23.9609 11.2383C25.3997 11.2383 26.5618 11.7363 27.4473 12.7324C28.3392 13.7285 28.7852 15.0534 28.7852 16.707V16.834C28.7852 17.8626 28.5866 18.7871 28.1895 19.6074C27.7988 20.4212 27.2357 21.056 26.5 21.5117C25.7708 21.9674 24.931 22.1953 23.9805 22.1953C22.5482 22.1953 21.3861 21.6973 20.4941 20.7012C19.6087 19.7051 19.166 18.3867 19.166 16.7461V16.6191ZM20.9824 16.834C20.9824 18.0059 21.2526 18.9466 21.793 19.6562C22.3398 20.3659 23.069 20.7207 23.9805 20.7207C24.8984 20.7207 25.6276 20.3626 26.168 19.6465C26.7083 18.9238 26.9785 17.9147 26.9785 16.6191C26.9785 15.4603 26.7018 14.5228 26.1484 13.8066C25.6016 13.084 24.8724 12.7227 23.9609 12.7227C23.069 12.7227 22.3496 13.0775 21.8027 13.7871C21.2559 14.4967 20.9824 15.5124 20.9824 16.834ZM30.2598 20.5254L30.8848 19.7539C31.5879 18.8424 31.9883 17.4753 32.0859 15.6523L32.252 11.4336H39.0586V20.5254H40.416V25.1055H38.6094V22H31.2363V25.1055H29.4297L29.4395 20.5254H30.2598ZM32.3984 20.5254H37.252V13.1035H34L33.8926 15.623C33.7819 17.7259 33.2839 19.36 32.3984 20.5254ZM51.3438 16.834C51.3438 18.4421 50.9759 19.7376 50.2402 20.7207C49.5046 21.7038 48.5085 22.1953 47.252 22.1953C45.9694 22.1953 44.9603 21.7884 44.2246 20.9746V26.0625H42.418V11.4336H44.0684L44.1562 12.6055C44.8919 11.694 45.9141 11.2383 47.2227 11.2383C48.4922 11.2383 49.4948 11.7168 50.2305 12.6738C50.9727 13.6309 51.3438 14.9622 51.3438 16.668V16.834ZM49.5371 16.6289C49.5371 15.4375 49.2832 14.4967 48.7754 13.8066C48.2676 13.1165 47.571 12.7715 46.6855 12.7715C45.5918 12.7715 44.7715 13.2565 44.2246 14.2266V19.2754C44.765 20.2389 45.5918 20.7207 46.7051 20.7207C47.571 20.7207 48.2578 20.3789 48.7656 19.6953C49.2799 19.0052 49.5371 17.9831 49.5371 16.6289ZM53.1699 16.6191C53.1699 15.584 53.3717 14.653 53.7754 13.8262C54.1855 12.9993 54.752 12.3613 55.4746 11.9121C56.2038 11.4629 57.0339 11.2383 57.9648 11.2383C59.4036 11.2383 60.5658 11.7363 61.4512 12.7324C62.3431 13.7285 62.7891 15.0534 62.7891 16.707V16.834C62.7891 17.8626 62.5905 18.7871 62.1934 19.6074C61.8027 20.4212 61.2396 21.056 60.5039 21.5117C59.7747 21.9674 58.9349 22.1953 57.9844 22.1953C56.5521 22.1953 55.39 21.6973 54.498 20.7012C53.6126 19.7051 53.1699 18.3867 53.1699 16.7461V16.6191ZM54.9863 16.834C54.9863 18.0059 55.2565 18.9466 55.7969 19.6562C56.3438 20.3659 57.0729 20.7207 57.9844 20.7207C58.9023 20.7207 59.6315 20.3626 60.1719 19.6465C60.7122 18.9238 60.9824 17.9147 60.9824 16.6191C60.9824 15.4603 60.7057 14.5228 60.1523 13.8066C59.6055 13.084 58.8763 12.7227 57.9648 12.7227C57.0729 12.7227 56.3535 13.0775 55.8066 13.7871C55.2598 14.4967 54.9863 15.5124 54.9863 16.834ZM69.6934 12.0391C71.0215 12.0391 72.0827 12.485 72.877 13.377C73.6777 14.2624 74.0781 15.431 74.0781 16.8828V17.0488C74.0781 18.0449 73.8861 18.9368 73.502 19.7246C73.1178 20.5059 72.5645 21.1146 71.8418 21.5508C71.1257 21.9805 70.2988 22.1953 69.3613 22.1953C67.9421 22.1953 66.7995 21.7233 65.9336 20.7793C65.0677 19.8288 64.6348 18.556 64.6348 16.9609V16.082C64.6348 13.862 65.0449 12.0977 65.8652 10.7891C66.6921 9.48047 67.9095 8.68294 69.5176 8.39648C70.429 8.23372 71.0443 8.03516 71.3633 7.80078C71.6823 7.56641 71.8418 7.24414 71.8418 6.83398H73.3262C73.3262 7.64779 73.1406 8.28255 72.7695 8.73828C72.4049 9.19401 71.819 9.51628 71.0117 9.70508L69.6641 10.0078C68.5898 10.2617 67.7826 10.6914 67.2422 11.2969C66.7083 11.8958 66.36 12.6966 66.1973 13.6992C67.1543 12.5924 68.3197 12.0391 69.6934 12.0391ZM69.3418 13.5234C68.4564 13.5234 67.7533 13.8229 67.2324 14.4219C66.7116 15.0143 66.4512 15.8379 66.4512 16.8926V17.0488C66.4512 18.1816 66.7116 19.0801 67.2324 19.7441C67.7598 20.4017 68.4694 20.7305 69.3613 20.7305C70.2598 20.7305 70.9694 20.3984 71.4902 19.7344C72.0111 19.0703 72.2715 18.1003 72.2715 16.8242C72.2715 15.8281 72.0078 15.0306 71.4805 14.4316C70.9596 13.8262 70.2467 13.5234 69.3418 13.5234ZM84.5664 22H82.7598V17.4883H77.9062V22H76.0898V11.4336H77.9062V16.0137H82.7598V11.4336H84.5664V22ZM91.8613 22.1953C90.429 22.1953 89.2637 21.7266 88.3652 20.7891C87.4668 19.8451 87.0176 18.5853 87.0176 17.0098V16.6777C87.0176 15.6296 87.2161 14.6953 87.6133 13.875C88.0169 13.0482 88.5768 12.4036 89.293 11.9414C90.0156 11.4727 90.7969 11.2383 91.6367 11.2383C93.0104 11.2383 94.0781 11.6908 94.8398 12.5957C95.6016 13.5007 95.9824 14.7962 95.9824 16.4824V17.2344H88.8242C88.8503 18.276 89.153 19.1191 89.7324 19.7637C90.3184 20.4017 91.0605 20.7207 91.959 20.7207C92.597 20.7207 93.1374 20.5905 93.5801 20.3301C94.0228 20.0697 94.4102 19.7246 94.7422 19.2949L95.8457 20.1543C94.9603 21.515 93.6322 22.1953 91.8613 22.1953ZM91.6367 12.7227C90.9076 12.7227 90.2956 12.9896 89.8008 13.5234C89.306 14.0508 89 14.793 88.8828 15.75H94.1758V15.6133C94.1237 14.6953 93.8763 13.9857 93.4336 13.4844C92.9909 12.9766 92.3919 12.7227 91.6367 12.7227ZM102.467 22.1953C101.035 22.1953 99.8691 21.7266 98.9707 20.7891C98.0723 19.8451 97.623 18.5853 97.623 17.0098V16.6777C97.623 15.6296 97.8216 14.6953 98.2188 13.875C98.6224 13.0482 99.1823 12.4036 99.8984 11.9414C100.621 11.4727 101.402 11.2383 102.242 11.2383C103.616 11.2383 104.684 11.6908 105.445 12.5957C106.207 13.5007 106.588 14.7962 106.588 16.4824V17.2344H99.4297C99.4557 18.276 99.7585 19.1191 100.338 19.7637C100.924 20.4017 101.666 20.7207 102.564 20.7207C103.202 20.7207 103.743 20.5905 104.186 20.3301C104.628 20.0697 105.016 19.7246 105.348 19.2949L106.451 20.1543C105.566 21.515 104.238 22.1953 102.467 22.1953ZM102.242 12.7227C101.513 12.7227 100.901 12.9896 100.406 13.5234C99.9115 14.0508 99.6055 14.793 99.4883 15.75H104.781V15.6133C104.729 14.6953 104.482 13.9857 104.039 13.4844C103.596 12.9766 102.997 12.7227 102.242 12.7227Z" fill="#7875FE"/>
<path d="M133.707 16.2071C134.098 15.8166 134.098 15.1834 133.707 14.7929L127.343 8.42893C126.953 8.03841 126.319 8.03841 125.929 8.42893C125.538 8.81946 125.538 9.45262 125.929 9.84315L131.586 15.5L125.929 21.1569C125.538 21.5474 125.538 22.1805 125.929 22.5711C126.319 22.9616 126.953 22.9616 127.343 22.5711L133.707 16.2071ZM113 16.5H133V14.5H113V16.5Z" fill="#7875FE"/>
</svg>
